<svg width="64" height="64" viewBox="0 0 64 64" fill="none" xmlns="http://www.w3.org/2000/svg">
<g clip-path="url(#clip0_1358_2)">
<path d="M32 0C14.327 0 0 14.3272 0 32C0 49.674 14.3272 64 32 64C49.6742 64 64 49.674 64 32C64 14.3285 49.6742 0.00175 31.9995 0.00175L32 0Z" fill="url(#paint0_linear_1358_2)"/>
<path d="M43.931 46.8145C44.871 47.3915 46.1015 47.0935 46.6747 46.1535C47.2517 45.2135 46.9537 43.9867 46.0137 43.4097C37.5787 38.2547 27.123 37.0557 14.933 39.8407C14.6775 39.8988 14.436 40.0067 14.2223 40.1582C14.0086 40.3097 13.8269 40.5019 13.6876 40.7237C13.5482 40.9455 13.454 41.1927 13.4103 41.451C13.3667 41.7093 13.3743 41.9737 13.433 42.229C13.5506 42.7447 13.8683 43.1926 14.3161 43.4742C14.7639 43.7558 15.3052 43.8481 15.821 43.7307C26.9597 41.1857 36.4177 42.2252 43.931 46.8145Z" fill="white"/>
<path d="M13.7517 24.6665C23.5984 21.6775 40.6142 22.241 50.9277 28.367H50.9292C52.3467 29.2115 54.1887 28.7428 55.0292 27.3203C55.8737 25.9 55.4077 24.063 53.9822 23.219C42.1084 16.17 23.3174 15.5068 12.0142 18.9383C10.4317 19.419 9.53994 21.09 10.0192 22.672C10.4982 24.2533 12.1704 25.146 13.7517 24.6665Z" fill="white"/>
<path d="M15.123 38.6617C13.7627 38.8785 12.8394 40.1608 13.0564 41.5219C13.2722 42.8811 14.5543 43.8042 15.9148 43.5876C27.3627 41.7532 39.4334 33.6324 45.9488 23.3835C46.6865 22.2209 46.3442 20.681 45.1827 19.9393C44.0204 19.2013 42.479 19.5457 41.7379 20.7079C36.0347 29.681 25.0925 37.0654 15.123 38.6617Z" fill="white"/>
</g>
<defs>
<linearGradient id="paint0_linear_1358_2" x1="32" y1="0" x2="32" y2="64" gradientUnits="userSpaceOnUse">
<stop stop-color="#06B6D4"/>
<stop offset="0.5" stop-color="#2563EB"/>
<stop offset="1" stop-color="#6366F1"/>
</linearGradient>
<clipPath id="clip0_1358_2">
<rect width="64" height="64" fill="white"/>
</clipPath>
</defs>
</svg>
